<?xml version="1.0" encoding="utf-8"?>
<!DOCTYPE svg PUBLIC "-//W3C//DTD SVG 1.1//EN" "http://www.w3.org/Graphics/SVG/1.1/DTD/svg11.dtd">
<svg version="1.1"
    xmlns="http://www.w3.org/2000/svg"
    xmlns:xlink="http://www.w3.org/1999/xlink"
    x="0px"
    y="0px"
    viewBox="0 0 256 256"
    enable-background="new 0 0 256 256"
    xml:space="preserve">
<metadata> Svg Vector Icons : http://www.onlinewebfonts.com/icon </metadata>
    <g><g><g><path fill="#000000" d="M73.8,48.5c-1.6,0.6-3.8,2.1-4.7,3.4c-1.6,2.2-1.8,3.8-2.1,18.7l-0.3,16.2H50.2c-15.4,0-16.7,0.1-18.9,1.8l-2.2,1.7v17.9v17.8l-7.7,0.3C9,127,10,123.5,10,166.3c0,19.8,0.1,36.6,0.1,37.4c0.1,0.9,0.9,2.2,2,3.3c1.8,1.7,2.7,1.7,52.2,1.7c49.6,0,50.4,0,52.6-1.8c2.2-1.7,2.2-1.8,2.2-13.7v-11.9h9.5h9.6l-0.6,3.3c-0.9,6.1-2,7.6-6.4,9.9c-5.1,2.6-6.9,5-6.9,8.8c0,5.3,0.4,5.4,33.2,5.4c28.3,0,29.5-0.1,31.1-1.7c3.9-3.9,1.3-9.2-5.9-12.3c-4.9-2.1-5.2-2.4-6.4-6.7c-0.8-2.5-1.4-5.1-1.4-5.7c0-0.9,6.1-1.1,31.7-1.1c35.3,0,35.5,0,38.1-5.5c1.3-2.7,1.4-8.6,1.2-62.2c-0.3-58.5-0.3-59.2-2.1-61.6c-0.9-1.3-3.1-2.8-4.7-3.4C235,47,78,47,73.8,48.5z M239.1,53.9l1.9,1.3v47.2v47.1l-60.7-0.2l-60.7-0.3l-0.3-29.3l-0.2-29.3l-2.2-1.7c-2.1-1.7-3.3-1.8-23.6-1.8H72V71.4C72,57,72,55.8,73.7,54.2c1.7-1.7,2.8-1.7,82.6-1.7C228.1,52.5,237.4,52.7,239.1,53.9z M114.4,147.7v55.3l-28.1,0.3l-28.1,0.2v-35.9v-36l-2.1-2.4c-2.1-2.3-2.3-2.4-12.4-2.7l-10.4-0.3v-16.5c0-9.1,0.3-16.8,0.6-17.1c0.3-0.3,18.5-0.5,40.5-0.4l40,0.3V147.7z M52.9,167.7l0.2,35.8l-19-0.2l-19.1-0.3l-0.3-34.7c-0.1-19.1,0-35.3,0.3-35.9c0.3-0.9,4.5-1,19-0.9l18.7,0.3L52.9,167.7z M241,163.5c0,7.8-0.3,10.1-1.4,11.2c-1.2,1.2-7.9,1.4-60.9,1.4h-59.5v-11.2v-11.2H180H241L241,163.5L241,163.5z M170.7,186.1c1.6,7.6,2.8,9.4,8.7,12.4c2.9,1.5,5.5,3.3,5.7,3.9c0.3,0.9-5.7,1.1-27.6,1.1c-24.1,0-28-0.2-28-1.3c0-0.7,1.6-2.1,3.7-3.1c5.9-3,7.2-4.7,8.8-11.6l1.5-6.3h13h13.1L170.7,186.1z"/><path
        fill="#000000"
        d="M152.3,61.5c-2.6,2.6-0.8,3.9,5,3.7c4.5-0.3,5.2-0.5,5.5-2.1c0.2-1.3-0.3-2-1.7-2.4C157.5,59.9,153.6,60.2,152.3,61.5z" /><path
        fill="#000000"
        d="M71.1,95.7c-2.3,2.8,1.5,6.2,4.1,3.6c1.1-1.1,1.2-1.7,0.5-2.9C74.4,94.4,72.5,94.2,71.1,95.7z" /><path
        fill="#000000"
        d="M68,189.3c-0.9,2.3,0.9,3.1,6.6,2.8c4.8-0.3,5.5-0.4,5.5-2c0-1.5-0.7-1.7-5.8-2C69.6,188,68.4,188.2,68,189.3z" /><path
        fill="#000000"
        d="M27.7,191.9c-0.9,2.2,0.6,3,6.1,3c4.1,0,5.5-0.3,5.9-1.4c0.9-2.3-0.3-2.9-6-2.9C29.7,190.6,28,191,27.7,191.9z" /></g></g></g>
</svg>